# xmcd
#
# Track frame offsets:
# 150
# 18170
# 37970
# 58160
# 83065
# 100787
# 121472
# 141412
# 160227
# 181102
# 198862
# 219767
# 239577
# 256560
# 280660
#
# Disc length: 4040 seconds
#
#
# Revision: 0
# Processed by: cddbd v1.5.1PL2 Copyright (c) Steve Scherf et al.
# Submitted via: FreeRIP 2.945 
#
DISCID=c00fc60f
DTITLE=Hinda Hicks - Hinda
DYEAR=1998
DGENRE=R&B
TTITLE0=If You Want Me
TTITLE1=You Think You Own Me
TTITLE2=I Wanna Be Your Lady
TTITLE3=My Eyes
TTITLE4=Love Reaction
TTITLE5=Who's Saying
TTITLE6=On and On
TTITLE7=Move Closer
TTITLE8=Here For Life
TTITLE9=True Love
TTITLE10=When You Touch Me
TTITLE11=Truly
TTITLE12=Child
TTITLE13=All My Love
TTITLE14=Stay
EXTD=
EXTT0=
EXTT1=
EXTT2=
EXTT3=
EXTT4=
EXTT5=
EXTT6=
EXTT7=
EXTT8=
EXTT9=
EXTT10=
EXTT11=
EXTT12=
EXTT13=
EXTT14=
PLAYORDER=
